<?xml version="1.0" encoding="UTF-8" standalone="no"?>
<!DOCTYPE svg PUBLIC "-//W3C//DTD SVG 1.1//EN"
 "http://www.w3.org/Graphics/SVG/1.1/DTD/svg11.dtd">
<!-- Generated by graphviz version 2.40.1 (20161225.0304)
 -->
<!-- Title: g Pages: 1 -->
<svg width="252pt" height="199pt"
 viewBox="0.00 0.00 252.00 198.87" xmlns="http://www.w3.org/2000/svg" xmlns:xlink="http://www.w3.org/1999/xlink">
<g id="graph0" class="graph" transform="scale(.7179 .7179) rotate(0) translate(4 273)">
<title>g</title>
<polygon fill="#ffffff" stroke="transparent" points="-4,4 -4,-273 347,-273 347,4 -4,4"/>
<!-- cObject -->
<g id="node1" class="node">
<title>cObject</title>
<polygon fill="none" stroke="#000000" points="221,-269 151,-269 151,-233 221,-233 221,-269"/>
<text text-anchor="middle" x="186" y="-247.3" font-family="Arial" font-size="14.00" fill="#000000">cObject</text>
</g>
<!-- cNamedObject -->
<g id="node2" class="node">
<title>cNamedObject</title>
<polygon fill="none" stroke="#000000" points="247,-196 125,-196 125,-160 247,-160 247,-196"/>
<text text-anchor="middle" x="186" y="-174.3" font-family="Arial" font-size="14.00" fill="#000000">cNamedObject</text>
</g>
<!-- cObject&#45;&gt;cNamedObject -->
<g id="edge1" class="edge">
<title>cObject&#45;&gt;cNamedObject</title>
<path fill="none" stroke="#000000" d="M186,-222.8688C186,-213.8769 186,-204.1687 186,-196.0904"/>
<polygon fill="#000000" stroke="#000000" points="182.5001,-222.955 186,-232.9551 189.5001,-222.9551 182.5001,-222.955"/>
</g>
<!-- cOwnedObject -->
<g id="node3" class="node">
<title>cOwnedObject</title>
<polygon fill="none" stroke="#000000" points="246,-123 126,-123 126,-87 246,-87 246,-123"/>
<text text-anchor="middle" x="186" y="-101.3" font-family="Arial" font-size="14.00" fill="#000000">cOwnedObject</text>
</g>
<!-- cNamedObject&#45;&gt;cOwnedObject -->
<g id="edge2" class="edge">
<title>cNamedObject&#45;&gt;cOwnedObject</title>
<path fill="none" stroke="#000000" d="M186,-149.8688C186,-140.8769 186,-131.1687 186,-123.0904"/>
<polygon fill="#000000" stroke="#000000" points="182.5001,-149.955 186,-159.9551 189.5001,-149.9551 182.5001,-149.955"/>
</g>
<!-- cModule -->
<g id="node4" class="node">
<title>cModule</title>
<polygon fill="none" stroke="#000000" points="76,-36 0,-36 0,0 76,0 76,-36"/>
<text text-anchor="middle" x="38" y="-14.3" font-family="Arial" font-size="14.00" fill="#000000">cModule</text>
</g>
<!-- cOwnedObject&#45;&gt;cModule -->
<g id="edge3" class="edge">
<title>cOwnedObject&#45;&gt;cModule</title>
<path fill="none" stroke="#000000" d="M146.6499,-81.8685C122.2028,-67.4976 91.239,-49.2959 68.6264,-36.0034"/>
<polygon fill="#000000" stroke="#000000" points="144.9398,-84.9231 155.3343,-86.9735 148.4871,-78.8885 144.9398,-84.9231"/>
<text text-anchor="middle" x="128" y="-57.8" font-family="Arial" font-size="14.00" fill="#000000">...</text>
</g>
<!-- cMessage -->
<g id="node5" class="node">
<title>cMessage</title>
<polygon fill="none" stroke="#000000" points="181.5,-36 94.5,-36 94.5,0 181.5,0 181.5,-36"/>
<text text-anchor="middle" x="138" y="-14.3" font-family="Arial" font-size="14.00" fill="#000000">cMessage</text>
</g>
<!-- cOwnedObject&#45;&gt;cMessage -->
<g id="edge4" class="edge">
<title>cOwnedObject&#45;&gt;cMessage</title>
<path fill="none" stroke="#000000" d="M171.1057,-78.0041C163.568,-64.3421 154.6234,-48.1299 147.9329,-36.0034"/>
<polygon fill="#000000" stroke="#000000" points="168.159,-79.9085 176.0544,-86.9735 174.2881,-76.527 168.159,-79.9085"/>
<text text-anchor="middle" x="172" y="-57.8" font-family="Arial" font-size="14.00" fill="#000000">...</text>
</g>
<!-- cQueue -->
<g id="node6" class="node">
<title>cQueue</title>
<polygon fill="none" stroke="#000000" points="270.5,-36 199.5,-36 199.5,0 270.5,0 270.5,-36"/>
<text text-anchor="middle" x="235" y="-14.3" font-family="Arial" font-size="14.00" fill="#000000">cQueue</text>
</g>
<!-- cOwnedObject&#45;&gt;cQueue -->
<g id="edge5" class="edge">
<title>cOwnedObject&#45;&gt;cQueue</title>
<path fill="none" stroke="#000000" d="M201.2046,-78.0041C208.8993,-64.3421 218.0303,-48.1299 224.8602,-36.0034"/>
<polygon fill="#000000" stroke="#000000" points="198.0107,-76.5429 196.1528,-86.9735 204.1098,-79.978 198.0107,-76.5429"/>
</g>
<!-- others -->
<g id="node7" class="node">
<title>others</title>
<polygon fill="none" stroke="#000000" points="343,-36 289,-36 289,0 343,0 343,-36"/>
<text text-anchor="middle" x="316" y="-14.3" font-family="Arial" font-size="14.00" fill="#000000">...</text>
</g>
<!-- cOwnedObject&#45;&gt;others -->
<g id="edge6" class="edge">
<title>cOwnedObject&#45;&gt;others</title>
<path fill="none" stroke="#000000" d="M221.4149,-81.2993C242.7526,-67.0194 269.4973,-49.121 289.0984,-36.0034"/>
<polygon fill="#000000" stroke="#000000" points="219.3001,-78.503 212.9361,-86.9735 223.1934,-84.3205 219.3001,-78.503"/>
</g>
</g>
</svg>
