<?xml version="1.0" encoding="UTF-8" standalone="no"?>
<!DOCTYPE svg PUBLIC "-//W3C//DTD SVG 1.1//EN"
 "http://www.w3.org/Graphics/SVG/1.1/DTD/svg11.dtd">
<!-- Generated by graphviz version 2.40.1 (20161225.0304)
 -->
<!-- Title: g Pages: 1 -->
<svg width="468pt" height="78pt"
 viewBox="0.00 0.00 468.00 78.34" xmlns="http://www.w3.org/2000/svg" xmlns:xlink="http://www.w3.org/1999/xlink">
<g id="graph0" class="graph" transform="scale(.6753 .6753) rotate(0) translate(4 112)">
<title>g</title>
<polygon fill="#ffffff" stroke="transparent" points="-4,4 -4,-112 689,-112 689,4 -4,4"/>
<!-- cRandom -->
<g id="node1" class="node">
<title>cRandom</title>
<polygon fill="none" stroke="#000000" points="421,-108 337,-108 337,-72 421,-72 421,-108"/>
<text text-anchor="middle" x="379" y="-86.3" font-family="Arial" font-size="14.00" fill="#000000">cRandom</text>
</g>
<!-- cUniform -->
<g id="node2" class="node">
<title>cUniform</title>
<polygon fill="none" stroke="#000000" points="82,-36 0,-36 0,0 82,0 82,-36"/>
<text text-anchor="middle" x="41" y="-14.3" font-family="Arial" font-size="14.00" fill="#000000">cUniform</text>
</g>
<!-- cRandom&#45;&gt;cUniform -->
<g id="edge1" class="edge">
<title>cRandom&#45;&gt;cUniform</title>
<path fill="none" stroke="#000000" d="M326.4955,-82.7422C268.3279,-74.1051 172.0408,-58.0324 91,-36 88.0621,-35.2013 85.0508,-34.3094 82.0338,-33.3616"/>
<polygon fill="#000000" stroke="#000000" points="326.1469,-86.2285 336.5491,-84.2172 327.1631,-79.3026 326.1469,-86.2285"/>
</g>
<!-- cExponential -->
<g id="node3" class="node">
<title>cExponential</title>
<polygon fill="none" stroke="#000000" points="208,-36 100,-36 100,0 208,0 208,-36"/>
<text text-anchor="middle" x="154" y="-14.3" font-family="Arial" font-size="14.00" fill="#000000">cExponential</text>
</g>
<!-- cRandom&#45;&gt;cExponential -->
<g id="edge2" class="edge">
<title>cRandom&#45;&gt;cExponential</title>
<path fill="none" stroke="#000000" d="M327.2192,-73.4301C291.5854,-62.0273 244.3474,-46.9112 208.2029,-35.3449"/>
<polygon fill="#000000" stroke="#000000" points="326.3522,-76.8275 336.9432,-76.5418 328.4857,-70.1605 326.3522,-76.8275"/>
</g>
<!-- cNormal -->
<g id="node4" class="node">
<title>cNormal</title>
<polygon fill="none" stroke="#000000" points="303.5,-36 226.5,-36 226.5,0 303.5,0 303.5,-36"/>
<text text-anchor="middle" x="265" y="-14.3" font-family="Arial" font-size="14.00" fill="#000000">cNormal</text>
</g>
<!-- cRandom&#45;&gt;cNormal -->
<g id="edge3" class="edge">
<title>cRandom&#45;&gt;cNormal</title>
<path fill="none" stroke="#000000" d="M341.3941,-66.2489C325.8857,-56.4541 308.2027,-45.2859 293.7578,-36.1628"/>
<polygon fill="#000000" stroke="#000000" points="339.9091,-69.4506 350.233,-71.8314 343.6471,-63.5322 339.9091,-69.4506"/>
</g>
<!-- cTruncNormal -->
<g id="node5" class="node">
<title>cTruncNormal</title>
<polygon fill="none" stroke="#000000" points="436.5,-36 321.5,-36 321.5,0 436.5,0 436.5,-36"/>
<text text-anchor="middle" x="379" y="-14.3" font-family="Arial" font-size="14.00" fill="#000000">cTruncNormal</text>
</g>
<!-- cRandom&#45;&gt;cTruncNormal -->
<g id="edge4" class="edge">
<title>cRandom&#45;&gt;cTruncNormal</title>
<path fill="none" stroke="#000000" d="M379,-61.5726C379,-53.1084 379,-44.0593 379,-36.4133"/>
<polygon fill="#000000" stroke="#000000" points="375.5001,-61.8313 379,-71.8314 382.5001,-61.8314 375.5001,-61.8313"/>
</g>
<!-- cGamma -->
<g id="node6" class="node">
<title>cGamma</title>
<polygon fill="none" stroke="#000000" points="537,-36 455,-36 455,0 537,0 537,-36"/>
<text text-anchor="middle" x="496" y="-14.3" font-family="Arial" font-size="14.00" fill="#000000">cGamma</text>
</g>
<!-- cRandom&#45;&gt;cGamma -->
<g id="edge5" class="edge">
<title>cRandom&#45;&gt;cGamma</title>
<path fill="none" stroke="#000000" d="M417.1499,-66.5232C433.1725,-56.6631 451.5218,-45.3712 466.4854,-36.1628"/>
<polygon fill="#000000" stroke="#000000" points="415.2063,-63.6095 408.524,-71.8314 418.875,-69.5711 415.2063,-63.6095"/>
</g>
<!-- cBeta -->
<g id="node7" class="node">
<title>cBeta</title>
<polygon fill="none" stroke="#000000" points="612.5,-36 555.5,-36 555.5,0 612.5,0 612.5,-36"/>
<text text-anchor="middle" x="584" y="-14.3" font-family="Arial" font-size="14.00" fill="#000000">cBeta</text>
</g>
<!-- cRandom&#45;&gt;cBeta -->
<g id="edge6" class="edge">
<title>cRandom&#45;&gt;cBeta</title>
<path fill="none" stroke="#000000" d="M431.0176,-75.0792C464.2833,-65.0732 508.1375,-51.0157 546,-36 548.9857,-34.8159 552.0677,-33.5071 555.1246,-32.1514"/>
<polygon fill="#000000" stroke="#000000" points="429.6348,-71.8392 421.0521,-78.0511 431.6353,-78.5473 429.6348,-71.8392"/>
</g>
<!-- others -->
<g id="node8" class="node">
<title>others</title>
<polygon fill="none" stroke="#000000" points="685,-36 631,-36 631,0 685,0 685,-36"/>
<text text-anchor="middle" x="658" y="-14.3" font-family="Arial" font-size="14.00" fill="#000000">...</text>
</g>
<!-- cRandom&#45;&gt;others -->
<g id="edge7" class="edge">
<title>cRandom&#45;&gt;others</title>
<path fill="none" stroke="#000000" d="M431.0648,-82.2311C480.9825,-73.9013 557.9903,-58.7261 622,-36 624.8974,-34.9713 627.8623,-33.7645 630.7859,-32.4712"/>
<polygon fill="#000000" stroke="#000000" points="430.4494,-78.7852 421.1466,-83.8555 431.5808,-85.6932 430.4494,-78.7852"/>
</g>
</g>
</svg>
