<?xml version="1.0" encoding="UTF-8" standalone="no"?>
<!DOCTYPE svg PUBLIC "-//W3C//DTD SVG 1.1//EN"
 "http://www.w3.org/Graphics/SVG/1.1/DTD/svg11.dtd">
<!-- Generated by graphviz version 2.40.1 (20161225.0304)
 -->
<!-- Title: g Pages: 1 -->
<svg width="290pt" height="277pt"
 viewBox="0.00 0.00 290.00 277.00" xmlns="http://www.w3.org/2000/svg" xmlns:xlink="http://www.w3.org/1999/xlink">
<g id="graph0" class="graph" transform="scale(1 1) rotate(0) translate(4 273)">
<title>g</title>
<polygon fill="#ffffff" stroke="transparent" points="-4,4 -4,-273 286,-273 286,4 -4,4"/>
<!-- cStatistic -->
<g id="node1" class="node">
<title>cStatistic</title>
<polygon fill="none" stroke="#000000" points="198,-269 118,-269 118,-233 198,-233 198,-269"/>
<text text-anchor="middle" x="158" y="-247.3" font-family="Arial" font-size="14.00" fill="#000000">cStatistic</text>
</g>
<!-- cStdDev -->
<g id="node2" class="node">
<title>cStdDev</title>
<polygon fill="none" stroke="#000000" points="196,-196 120,-196 120,-160 196,-160 196,-196"/>
<text text-anchor="middle" x="158" y="-174.3" font-family="Arial" font-size="14.00" fill="#000000">cStdDev</text>
</g>
<!-- cStatistic&#45;&gt;cStdDev -->
<g id="edge1" class="edge">
<title>cStatistic&#45;&gt;cStdDev</title>
<path fill="none" stroke="#000000" d="M158,-222.8688C158,-213.8769 158,-204.1687 158,-196.0904"/>
<polygon fill="#000000" stroke="#000000" points="154.5001,-222.955 158,-232.9551 161.5001,-222.9551 154.5001,-222.955"/>
</g>
<!-- cAbstractHistogram -->
<g id="node3" class="node">
<title>cAbstractHistogram</title>
<polygon fill="none" stroke="#000000" points="237,-123 79,-123 79,-87 237,-87 237,-123"/>
<text text-anchor="middle" x="158" y="-101.3" font-family="Arial" font-size="14.00" fill="#000000">cAbstractHistogram</text>
</g>
<!-- cStdDev&#45;&gt;cAbstractHistogram -->
<g id="edge2" class="edge">
<title>cStdDev&#45;&gt;cAbstractHistogram</title>
<path fill="none" stroke="#000000" d="M158,-149.8688C158,-140.8769 158,-131.1687 158,-123.0904"/>
<polygon fill="#000000" stroke="#000000" points="154.5001,-149.955 158,-159.9551 161.5001,-149.9551 154.5001,-149.955"/>
</g>
<!-- cHistogram -->
<g id="node4" class="node">
<title>cHistogram</title>
<polygon fill="none" stroke="#000000" points="98,-36 0,-36 0,0 98,0 98,-36"/>
<text text-anchor="middle" x="49" y="-14.3" font-family="Arial" font-size="14.00" fill="#000000">cHistogram</text>
</g>
<!-- cAbstractHistogram&#45;&gt;cHistogram -->
<g id="edge3" class="edge">
<title>cAbstractHistogram&#45;&gt;cHistogram</title>
<path fill="none" stroke="#000000" d="M127.5879,-80.7262C109.8182,-66.543 87.7716,-48.9461 71.5559,-36.0034"/>
<polygon fill="#000000" stroke="#000000" points="125.416,-83.4708 135.4151,-86.9735 129.7828,-77.9998 125.416,-83.4708"/>
</g>
<!-- cPSquare -->
<g id="node5" class="node">
<title>cPSquare</title>
<polygon fill="none" stroke="#000000" points="199.5,-36 116.5,-36 116.5,0 199.5,0 199.5,-36"/>
<text text-anchor="middle" x="158" y="-14.3" font-family="Arial" font-size="14.00" fill="#000000">cPSquare</text>
</g>
<!-- cAbstractHistogram&#45;&gt;cPSquare -->
<g id="edge4" class="edge">
<title>cAbstractHistogram&#45;&gt;cPSquare</title>
<path fill="none" stroke="#000000" d="M158,-76.8156C158,-63.4102 158,-47.7801 158,-36.0034"/>
<polygon fill="#000000" stroke="#000000" points="154.5001,-76.9735 158,-86.9735 161.5001,-76.9736 154.5001,-76.9735"/>
<text text-anchor="middle" x="170.5" y="-57.8" font-family="Arial" font-size="14.00" fill="#000000">(...)</text>
</g>
<!-- cKSplit -->
<g id="node6" class="node">
<title>cKSplit</title>
<polygon fill="none" stroke="#000000" points="282,-36 218,-36 218,0 282,0 282,-36"/>
<text text-anchor="middle" x="250" y="-14.3" font-family="Arial" font-size="14.00" fill="#000000">cKSplit</text>
</g>
<!-- cAbstractHistogram&#45;&gt;cKSplit -->
<g id="edge5" class="edge">
<title>cAbstractHistogram&#45;&gt;cKSplit</title>
<path fill="none" stroke="#000000" d="M184.4831,-79.9562C199.3361,-65.9104 217.522,-48.7129 230.962,-36.0034"/>
<polygon fill="#000000" stroke="#000000" points="181.9234,-77.5596 177.0625,-86.9735 186.7331,-82.6457 181.9234,-77.5596"/>
<text text-anchor="middle" x="221.5" y="-57.8" font-family="Arial" font-size="14.00" fill="#000000">(...)</text>
</g>
</g>
</svg>
