<?xml version="1.0" encoding="UTF-8" standalone="no"?>
<!DOCTYPE svg PUBLIC "-//W3C//DTD SVG 1.1//EN"
 "http://www.w3.org/Graphics/SVG/1.1/DTD/svg11.dtd">
<!-- Generated by graphviz version 2.40.1 (20161225.0304)
 -->
<!-- Title: g Pages: 1 -->
<svg width="562pt" height="254pt"
 viewBox="0.00 0.00 562.00 253.93" xmlns="http://www.w3.org/2000/svg" xmlns:xlink="http://www.w3.org/1999/xlink">
<g id="graph0" class="graph" transform="scale(.7789 .7789) rotate(0) translate(4 322)">
<title>g</title>
<polygon fill="#ffffff" stroke="transparent" points="-4,4 -4,-322 717.5,-322 717.5,4 -4,4"/>
<!-- cFigure -->
<g id="node1" class="node">
<title>cFigure</title>
<polygon fill="none" stroke="#000000" points="140,-318 93,-318 93,-295 140,-295 140,-318"/>
<text text-anchor="middle" x="116.5" y="-304" font-family="Arial" font-size="10.00" fill="#000000">cFigure</text>
</g>
<!-- cAbstractLineFigure -->
<g id="node2" class="node">
<title>cAbstractLineFigure</title>
<polygon fill="none" stroke="#000000" points="170.5,-259 62.5,-259 62.5,-236 170.5,-236 170.5,-259"/>
<text text-anchor="middle" x="116.5" y="-245" font-family="Arial" font-size="10.00" fill="#000000">cAbstractLineFigure</text>
</g>
<!-- cFigure&#45;&gt;cAbstractLineFigure -->
<g id="edge1" class="edge">
<title>cFigure&#45;&gt;cAbstractLineFigure</title>
<path fill="none" stroke="#000000" d="M116.5,-284.6373C116.5,-275.9888 116.5,-266.3999 116.5,-259.1323"/>
<polygon fill="#000000" stroke="#000000" points="113.0001,-284.8435 116.5,-294.8435 120.0001,-284.8435 113.0001,-284.8435"/>
</g>
<!-- cLineFigure -->
<g id="node3" class="node">
<title>cLineFigure</title>
<polygon fill="none" stroke="#000000" points="67,-200 0,-200 0,-177 67,-177 67,-200"/>
<text text-anchor="middle" x="33.5" y="-186" font-family="Arial" font-size="10.00" fill="#000000">cLineFigure</text>
</g>
<!-- cAbstractLineFigure&#45;&gt;cLineFigure -->
<g id="edge2" class="edge">
<title>cAbstractLineFigure&#45;&gt;cLineFigure</title>
<path fill="none" stroke="#000000" d="M91.6957,-229.868C78.1647,-220.2496 61.792,-208.6112 49.8641,-200.1323"/>
<polygon fill="#000000" stroke="#000000" points="89.9234,-232.9024 100.1019,-235.8435 93.9791,-227.197 89.9234,-232.9024"/>
</g>
<!-- cArcFigure -->
<g id="node4" class="node">
<title>cArcFigure</title>
<polygon fill="none" stroke="#000000" points="148,-200 85,-200 85,-177 148,-177 148,-200"/>
<text text-anchor="middle" x="116.5" y="-186" font-family="Arial" font-size="10.00" fill="#000000">cArcFigure</text>
</g>
<!-- cAbstractLineFigure&#45;&gt;cArcFigure -->
<g id="edge3" class="edge">
<title>cAbstractLineFigure&#45;&gt;cArcFigure</title>
<path fill="none" stroke="#000000" d="M116.5,-225.6373C116.5,-216.9888 116.5,-207.3999 116.5,-200.1323"/>
<polygon fill="#000000" stroke="#000000" points="113.0001,-225.8435 116.5,-235.8435 120.0001,-225.8435 113.0001,-225.8435"/>
</g>
<!-- cPolylineFigure -->
<g id="node5" class="node">
<title>cPolylineFigure</title>
<polygon fill="none" stroke="#000000" points="252.5,-200 166.5,-200 166.5,-177 252.5,-177 252.5,-200"/>
<text text-anchor="middle" x="209.5" y="-186" font-family="Arial" font-size="10.00" fill="#000000">cPolylineFigure</text>
</g>
<!-- cAbstractLineFigure&#45;&gt;cPolylineFigure -->
<g id="edge4" class="edge">
<title>cAbstractLineFigure&#45;&gt;cPolylineFigure</title>
<path fill="none" stroke="#000000" d="M143.4299,-230.4154C158.7533,-220.6942 177.5447,-208.7727 191.1644,-200.1323"/>
<polygon fill="#000000" stroke="#000000" points="141.4429,-227.531 134.8738,-235.8435 145.1929,-233.4419 141.4429,-227.531"/>
</g>
<!-- cFigure2 -->
<g id="node6" class="node">
<title>cFigure2</title>
<polygon fill="none" stroke="#000000" points="574,-318 527,-318 527,-295 574,-295 574,-318"/>
<text text-anchor="middle" x="550.5" y="-304" font-family="Arial" font-size="10.00" fill="#000000">cFigure</text>
</g>
<!-- cAbstractTextFigure -->
<g id="node7" class="node">
<title>cAbstractTextFigure</title>
<polygon fill="none" stroke="#000000" points="446.5,-259 338.5,-259 338.5,-236 446.5,-236 446.5,-259"/>
<text text-anchor="middle" x="392.5" y="-245" font-family="Arial" font-size="10.00" fill="#000000">cAbstractTextFigure</text>
</g>
<!-- cFigure2&#45;&gt;cAbstractTextFigure -->
<g id="edge5" class="edge">
<title>cFigure2&#45;&gt;cAbstractTextFigure</title>
<path fill="none" stroke="#000000" d="M517.2027,-294.0662C489.5073,-283.7243 450.3898,-269.1171 423.3861,-259.0334"/>
<polygon fill="#000000" stroke="#000000" points="516.2532,-297.4477 526.8458,-297.6671 518.702,-290.8899 516.2532,-297.4477"/>
</g>
<!-- cAbstractImageFigure -->
<g id="node10" class="node">
<title>cAbstractImageFigure</title>
<polygon fill="none" stroke="#000000" points="609.5,-259 491.5,-259 491.5,-236 609.5,-236 609.5,-259"/>
<text text-anchor="middle" x="550.5" y="-245" font-family="Arial" font-size="10.00" fill="#000000">cAbstractImageFigure</text>
</g>
<!-- cFigure2&#45;&gt;cAbstractImageFigure -->
<g id="edge8" class="edge">
<title>cFigure2&#45;&gt;cAbstractImageFigure</title>
<path fill="none" stroke="#000000" d="M550.5,-284.6373C550.5,-275.9888 550.5,-266.3999 550.5,-259.1323"/>
<polygon fill="#000000" stroke="#000000" points="547.0001,-284.8435 550.5,-294.8435 554.0001,-284.8435 547.0001,-284.8435"/>
</g>
<!-- cGroupFigure -->
<g id="node14" class="node">
<title>cGroupFigure</title>
<polygon fill="none" stroke="#000000" points="703.5,-259 627.5,-259 627.5,-236 703.5,-236 703.5,-259"/>
<text text-anchor="middle" x="665.5" y="-245" font-family="Arial" font-size="10.00" fill="#000000">cGroupFigure</text>
</g>
<!-- cFigure2&#45;&gt;cGroupFigure -->
<g id="edge12" class="edge">
<title>cFigure2&#45;&gt;cGroupFigure</title>
<path fill="none" stroke="#000000" d="M581.9383,-290.3708C601.1672,-280.5055 625.328,-268.11 642.7174,-259.1884"/>
<polygon fill="#000000" stroke="#000000" points="580.2459,-287.3053 572.9462,-294.9841 583.4412,-293.5334 580.2459,-287.3053"/>
</g>
<!-- cTextFigure -->
<g id="node8" class="node">
<title>cTextFigure</title>
<polygon fill="none" stroke="#000000" points="338,-200 271,-200 271,-177 338,-177 338,-200"/>
<text text-anchor="middle" x="304.5" y="-186" font-family="Arial" font-size="10.00" fill="#000000">cTextFigure</text>
</g>
<!-- cAbstractTextFigure&#45;&gt;cTextFigure -->
<g id="edge6" class="edge">
<title>cAbstractTextFigure&#45;&gt;cTextFigure</title>
<path fill="none" stroke="#000000" d="M366.6106,-230.1423C352.1865,-220.4716 334.6168,-208.6919 321.8499,-200.1323"/>
<polygon fill="#000000" stroke="#000000" points="364.859,-233.1818 375.114,-235.8435 368.7571,-227.3676 364.859,-233.1818"/>
</g>
<!-- cLabelFigure -->
<g id="node9" class="node">
<title>cLabelFigure</title>
<polygon fill="none" stroke="#000000" points="429,-200 356,-200 356,-177 429,-177 429,-200"/>
<text text-anchor="middle" x="392.5" y="-186" font-family="Arial" font-size="10.00" fill="#000000">cLabelFigure</text>
</g>
<!-- cAbstractTextFigure&#45;&gt;cLabelFigure -->
<g id="edge7" class="edge">
<title>cAbstractTextFigure&#45;&gt;cLabelFigure</title>
<path fill="none" stroke="#000000" d="M392.5,-225.6373C392.5,-216.9888 392.5,-207.3999 392.5,-200.1323"/>
<polygon fill="#000000" stroke="#000000" points="389.0001,-225.8435 392.5,-235.8435 396.0001,-225.8435 389.0001,-225.8435"/>
</g>
<!-- cFigure3 -->
<g id="node15" class="node">
<title>cFigure3</title>
<polygon fill="none" stroke="#000000" points="416,-141 369,-141 369,-118 416,-118 416,-141"/>
<text text-anchor="middle" x="392.5" y="-127" font-family="Arial" font-size="10.00" fill="#000000">cFigure</text>
</g>
<!-- cLabelFigure&#45;&gt;cFigure3 -->
<!-- cImageFigure -->
<g id="node11" class="node">
<title>cImageFigure</title>
<polygon fill="none" stroke="#000000" points="525.5,-200 447.5,-200 447.5,-177 525.5,-177 525.5,-200"/>
<text text-anchor="middle" x="486.5" y="-186" font-family="Arial" font-size="10.00" fill="#000000">cImageFigure</text>
</g>
<!-- cAbstractImageFigure&#45;&gt;cImageFigure -->
<g id="edge9" class="edge">
<title>cAbstractImageFigure&#45;&gt;cImageFigure</title>
<path fill="none" stroke="#000000" d="M530.4743,-229.0388C520.2217,-219.5872 508.0527,-208.3689 499.1181,-200.1323"/>
<polygon fill="#000000" stroke="#000000" points="528.1309,-231.6388 537.8557,-235.8435 532.8755,-226.4921 528.1309,-231.6388"/>
</g>
<!-- cIconFigure -->
<g id="node12" class="node">
<title>cIconFigure</title>
<polygon fill="none" stroke="#000000" points="611,-200 544,-200 544,-177 611,-177 611,-200"/>
<text text-anchor="middle" x="577.5" y="-186" font-family="Arial" font-size="10.00" fill="#000000">cIconFigure</text>
</g>
<!-- cAbstractImageFigure&#45;&gt;cIconFigure -->
<g id="edge10" class="edge">
<title>cAbstractImageFigure&#45;&gt;cIconFigure</title>
<path fill="none" stroke="#000000" d="M560.1107,-226.4989C564.169,-217.6307 568.74,-207.6422 572.1768,-200.1323"/>
<polygon fill="#000000" stroke="#000000" points="556.813,-225.294 555.8343,-235.8435 563.1782,-228.2069 556.813,-225.294"/>
</g>
<!-- cPixmapFigure -->
<g id="node13" class="node">
<title>cPixmapFigure</title>
<polygon fill="none" stroke="#000000" points="713.5,-200 629.5,-200 629.5,-177 713.5,-177 713.5,-200"/>
<text text-anchor="middle" x="671.5" y="-186" font-family="Arial" font-size="10.00" fill="#000000">cPixmapFigure</text>
</g>
<!-- cAbstractImageFigure&#45;&gt;cPixmapFigure -->
<g id="edge11" class="edge">
<title>cAbstractImageFigure&#45;&gt;cPixmapFigure</title>
<path fill="none" stroke="#000000" d="M583.303,-231.5051C603.5794,-221.6183 629.1489,-209.1505 647.5288,-200.1884"/>
<polygon fill="#000000" stroke="#000000" points="581.5717,-228.4554 574.1173,-235.9841 584.6397,-234.7473 581.5717,-228.4554"/>
</g>
<!-- cAbstractShapeFigure -->
<g id="node16" class="node">
<title>cAbstractShapeFigure</title>
<polygon fill="none" stroke="#000000" points="451.5,-82 333.5,-82 333.5,-59 451.5,-59 451.5,-82"/>
<text text-anchor="middle" x="392.5" y="-68" font-family="Arial" font-size="10.00" fill="#000000">cAbstractShapeFigure</text>
</g>
<!-- cFigure3&#45;&gt;cAbstractShapeFigure -->
<g id="edge13" class="edge">
<title>cFigure3&#45;&gt;cAbstractShapeFigure</title>
<path fill="none" stroke="#000000" d="M392.5,-107.6373C392.5,-98.9888 392.5,-89.3999 392.5,-82.1323"/>
<polygon fill="#000000" stroke="#000000" points="389.0001,-107.8435 392.5,-117.8435 396.0001,-107.8435 389.0001,-107.8435"/>
</g>
<!-- cRectangleFigure -->
<g id="node17" class="node">
<title>cRectangleFigure</title>
<polygon fill="none" stroke="#000000" points="204,-23 109,-23 109,0 204,0 204,-23"/>
<text text-anchor="middle" x="156.5" y="-9" font-family="Arial" font-size="10.00" fill="#000000">cRectangleFigure</text>
</g>
<!-- cAbstractShapeFigure&#45;&gt;cRectangleFigure -->
<g id="edge14" class="edge">
<title>cAbstractShapeFigure&#45;&gt;cRectangleFigure</title>
<path fill="none" stroke="#000000" d="M336.6482,-56.5371C295.8656,-46.3414 241.2235,-32.6809 202.8499,-23.0875"/>
<polygon fill="#000000" stroke="#000000" points="335.8863,-59.9542 346.4366,-58.9841 337.5841,-53.1632 335.8863,-59.9542"/>
</g>
<!-- cOvalFigure -->
<g id="node18" class="node">
<title>cOvalFigure</title>
<polygon fill="none" stroke="#000000" points="292.5,-23 222.5,-23 222.5,0 292.5,0 292.5,-23"/>
<text text-anchor="middle" x="257.5" y="-9" font-family="Arial" font-size="10.00" fill="#000000">cOvalFigure</text>
</g>
<!-- cAbstractShapeFigure&#45;&gt;cOvalFigure -->
<g id="edge15" class="edge">
<title>cAbstractShapeFigure&#45;&gt;cOvalFigure</title>
<path fill="none" stroke="#000000" d="M356.8196,-54.9063C334.0551,-44.9574 305.0296,-32.2722 284.2448,-23.1884"/>
<polygon fill="#000000" stroke="#000000" points="355.5854,-58.1866 366.1502,-58.9841 358.3887,-51.7724 355.5854,-58.1866"/>
</g>
<!-- cRingFigure -->
<g id="node19" class="node">
<title>cRingFigure</title>
<polygon fill="none" stroke="#000000" points="380,-23 311,-23 311,0 380,0 380,-23"/>
<text text-anchor="middle" x="345.5" y="-9" font-family="Arial" font-size="10.00" fill="#000000">cRingFigure</text>
</g>
<!-- cAbstractShapeFigure&#45;&gt;cRingFigure -->
<g id="edge16" class="edge">
<title>cAbstractShapeFigure&#45;&gt;cRingFigure</title>
<path fill="none" stroke="#000000" d="M376.9015,-50.919C369.5671,-41.7119 361.0705,-31.0459 354.7664,-23.1323"/>
<polygon fill="#000000" stroke="#000000" points="374.2459,-53.2027 383.2143,-58.8435 379.7211,-48.8411 374.2459,-53.2027"/>
</g>
<!-- cPieSliceFigure -->
<g id="node20" class="node">
<title>cPieSliceFigure</title>
<polygon fill="none" stroke="#000000" points="483,-23 398,-23 398,0 483,0 483,-23"/>
<text text-anchor="middle" x="440.5" y="-9" font-family="Arial" font-size="10.00" fill="#000000">cPieSliceFigure</text>
</g>
<!-- cAbstractShapeFigure&#45;&gt;cPieSliceFigure -->
<g id="edge17" class="edge">
<title>cAbstractShapeFigure&#45;&gt;cPieSliceFigure</title>
<path fill="none" stroke="#000000" d="M408.4303,-50.919C415.9208,-41.7119 424.5982,-31.0459 431.0364,-23.1323"/>
<polygon fill="#000000" stroke="#000000" points="405.5792,-48.8775 401.9833,-58.8435 411.0092,-53.2952 405.5792,-48.8775"/>
</g>
<!-- cPolygonFigure -->
<g id="node21" class="node">
<title>cPolygonFigure</title>
<polygon fill="none" stroke="#000000" points="587.5,-23 501.5,-23 501.5,0 587.5,0 587.5,-23"/>
<text text-anchor="middle" x="544.5" y="-9" font-family="Arial" font-size="10.00" fill="#000000">cPolygonFigure</text>
</g>
<!-- cAbstractShapeFigure&#45;&gt;cPolygonFigure -->
<g id="edge18" class="edge">
<title>cAbstractShapeFigure&#45;&gt;cPolygonFigure</title>
<path fill="none" stroke="#000000" d="M431.6796,-55.2921C457.5496,-45.2505 490.9251,-32.2955 514.6475,-23.0875"/>
<polygon fill="#000000" stroke="#000000" points="430.2238,-52.1027 422.168,-58.9841 432.7568,-58.6284 430.2238,-52.1027"/>
</g>
<!-- cPathFigure -->
<g id="node22" class="node">
<title>cPathFigure</title>
<polygon fill="none" stroke="#000000" points="673.5,-23 605.5,-23 605.5,0 673.5,0 673.5,-23"/>
<text text-anchor="middle" x="639.5" y="-9" font-family="Arial" font-size="10.00" fill="#000000">cPathFigure</text>
</g>
<!-- cAbstractShapeFigure&#45;&gt;cPathFigure -->
<g id="edge19" class="edge">
<title>cAbstractShapeFigure&#45;&gt;cPathFigure</title>
<path fill="none" stroke="#000000" d="M454.1731,-56.6895C494.705,-47.4779 548.8558,-34.9145 596.5,-23 599.3488,-22.2876 602.2993,-21.5333 605.2585,-20.7653"/>
<polygon fill="#000000" stroke="#000000" points="453.1525,-53.332 444.1741,-58.9568 454.7005,-60.1587 453.1525,-53.332"/>
</g>
</g>
</svg>
