<?xml version="1.0" encoding="UTF-8" standalone="no"?>
<!DOCTYPE svg PUBLIC "-//W3C//DTD SVG 1.1//EN"
 "http://www.w3.org/Graphics/SVG/1.1/DTD/svg11.dtd">
<!-- Generated by graphviz version 2.40.1 (20161225.0304)
 -->
<!-- Title: g Pages: 1 -->
<svg width="360pt" height="112pt"
 viewBox="0.00 0.00 360.00 112.09" xmlns="http://www.w3.org/2000/svg" xmlns:xlink="http://www.w3.org/1999/xlink">
<g id="graph0" class="graph" transform="scale(.6159 .6159) rotate(0) translate(4 178)">
<title>g</title>
<polygon fill="#ffffff" stroke="transparent" points="-4,4 -4,-178 580.5055,-178 580.5055,4 -4,4"/>
<!-- pkdrop -->
<g id="node1" class="node">
<title>pkdrop</title>
<polygon fill="none" stroke="#000000" points="72,-112 0,-112 0,-62 72,-62 72,-112"/>
<text text-anchor="middle" x="36" y="-83.3" font-family="Arial" font-size="14.00" fill="#000000">pkdrop</text>
</g>
<!-- packetBytes -->
<g id="node2" class="node">
<title>packetBytes</title>
<ellipse fill="none" stroke="#000000" cx="162.8752" cy="-87" rx="54.7507" ry="54.7507"/>
<text text-anchor="middle" x="162.8752" y="-83.3" font-family="Arial" font-size="14.00" fill="#000000">packetBytes</text>
</g>
<!-- pkdrop&#45;&gt;packetBytes -->
<g id="edge1" class="edge">
<title>pkdrop&#45;&gt;packetBytes</title>
<path fill="none" stroke="#000000" d="M72.018,-87C80.0218,-87 88.7467,-87 97.5205,-87"/>
<polygon fill="#000000" stroke="#000000" points="97.8025,-90.5001 107.8025,-87 97.8024,-83.5001 97.8025,-90.5001"/>
</g>
<!-- expr1 -->
<g id="node3" class="node">
<title>expr1</title>
<ellipse fill="none" stroke="#000000" cx="299.1279" cy="-87" rx="45.2554" ry="45.2554"/>
<text text-anchor="middle" x="299.1279" y="-83.3" font-family="Arial" font-size="14.00" fill="#000000">f(x) = x*8</text>
</g>
<!-- packetBytes&#45;&gt;expr1 -->
<g id="edge2" class="edge">
<title>packetBytes&#45;&gt;expr1</title>
<path fill="none" stroke="#000000" d="M217.9016,-87C226.303,-87 234.9805,-87 243.3968,-87"/>
<polygon fill="#000000" stroke="#000000" points="243.4973,-90.5001 253.4972,-87 243.4972,-83.5001 243.4973,-90.5001"/>
</g>
<!-- sum -->
<g id="node4" class="node">
<title>sum</title>
<ellipse fill="none" stroke="#000000" cx="420.5055" cy="-134" rx="36" ry="36"/>
<text text-anchor="middle" x="420.5055" y="-130.3" font-family="Arial" font-size="14.00" fill="#000000">sum</text>
</g>
<!-- expr1&#45;&gt;sum -->
<g id="edge4" class="edge">
<title>expr1&#45;&gt;sum</title>
<path fill="none" stroke="#000000" d="M341.5799,-103.4383C353.1161,-107.9054 365.6216,-112.7478 377.2041,-117.2328"/>
<polygon fill="#000000" stroke="#000000" points="376.0858,-120.5529 386.6749,-120.9001 378.6135,-114.0252 376.0858,-120.5529"/>
</g>
<!-- sumrec -->
<g id="node5" class="node">
<title>sumrec</title>
<ellipse fill="none" stroke="#000000" cx="420.5055" cy="-40" rx="36" ry="36"/>
<ellipse fill="none" stroke="#000000" cx="420.5055" cy="-40" rx="40" ry="40"/>
<text text-anchor="middle" x="420.5055" y="-36.3" font-family="Arial" font-size="14.00" fill="#000000">sum</text>
</g>
<!-- expr1&#45;&gt;sumrec -->
<g id="edge3" class="edge">
<title>expr1&#45;&gt;sumrec</title>
<path fill="none" stroke="#000000" d="M341.5799,-70.5617C351.9433,-66.5488 363.0888,-62.233 373.6448,-58.1455"/>
<polygon fill="#000000" stroke="#000000" points="375.0726,-61.3459 383.134,-54.471 372.5449,-54.8182 375.0726,-61.3459"/>
</g>
<!-- vector -->
<g id="node6" class="node">
<title>vector</title>
<ellipse fill="none" stroke="#000000" cx="536.5055" cy="-134" rx="36" ry="36"/>
<ellipse fill="none" stroke="#000000" cx="536.5055" cy="-134" rx="40" ry="40"/>
<text text-anchor="middle" x="536.5055" y="-130.3" font-family="Arial" font-size="14.00" fill="#000000">vector</text>
</g>
<!-- sum&#45;&gt;vector -->
<g id="edge5" class="edge">
<title>sum&#45;&gt;vector</title>
<path fill="none" stroke="#000000" d="M456.5727,-134C465.9514,-134 476.2273,-134 486.1949,-134"/>
<polygon fill="#000000" stroke="#000000" points="486.4199,-137.5001 496.4199,-134 486.4199,-130.5001 486.4199,-137.5001"/>
</g>
</g>
</svg>
