<?xml version="1.0" encoding="UTF-8" standalone="no"?>
<!DOCTYPE svg PUBLIC "-//W3C//DTD SVG 1.1//EN"
 "http://www.w3.org/Graphics/SVG/1.1/DTD/svg11.dtd">
<!-- Generated by graphviz version 2.40.1 (20161225.0304)
 -->
<!-- Title: g Pages: 1 -->
<svg width="360pt" height="307pt"
 viewBox="0.00 0.00 360.00 307.10" xmlns="http://www.w3.org/2000/svg" xmlns:xlink="http://www.w3.org/1999/xlink">
<g id="graph0" class="graph" transform="scale(.622 .622) rotate(0) translate(4 489.7401)">
<title>g</title>
<polygon fill="#ffffff" stroke="transparent" points="-4,4 -4,-489.7401 574.7878,-489.7401 574.7878,4 -4,4"/>
<!-- cc -->
<g id="node1" class="node">
<title>cc</title>
<ellipse fill="none" stroke="#000000" cx="71.4937" cy="-467.7401" rx="71.4873" ry="18"/>
<text text-anchor="middle" x="71.4937" y="-464.0401" font-family="Arial" font-size="14.00" fill="#000000">C++ sources</text>
</g>
<!-- linking -->
<g id="node10" class="node">
<title>linking</title>
<polygon fill="none" stroke="#000000" points="278.4937,-252 108.4937,-252 108.4937,-216 278.4937,-216 278.4937,-252"/>
<text text-anchor="middle" x="193.4937" y="-230.3" font-family="Arial" font-size="14.00" fill="#000000">Compiling and linking</text>
</g>
<!-- cc&#45;&gt;linking -->
<g id="edge3" class="edge">
<title>cc&#45;&gt;linking</title>
<path fill="none" stroke="#000000" d="M71.205,-449.6698C71.5191,-415.1592 76.4673,-338.7926 111.4937,-288 119.9851,-275.6863 132.2898,-265.4696 144.7958,-257.3591"/>
<polygon fill="#000000" stroke="#000000" points="146.7303,-260.2788 153.4416,-252.0806 143.0827,-254.3042 146.7303,-260.2788"/>
</g>
<!-- m_cc -->
<g id="node2" class="node">
<title>m_cc</title>
<ellipse fill="none" stroke="#000000" cx="193.4937" cy="-314.8701" rx="73.387" ry="18"/>
<text text-anchor="middle" x="193.4937" y="-311.1701" font-family="Arial" font-size="14.00" fill="#000000">*_m.cc/h files</text>
</g>
<!-- m_cc&#45;&gt;linking -->
<g id="edge4" class="edge">
<title>m_cc&#45;&gt;linking</title>
<path fill="none" stroke="#000000" d="M193.4937,-296.5194C193.4937,-286.4898 193.4937,-273.8453 193.4937,-262.5565"/>
<polygon fill="#000000" stroke="#000000" points="196.9938,-262.278 193.4937,-252.278 189.9938,-262.2781 196.9938,-262.278"/>
</g>
<!-- msg -->
<g id="node3" class="node">
<title>msg</title>
<ellipse fill="none" stroke="#000000" cx="214.4937" cy="-467.7401" rx="53.8905" ry="18"/>
<text text-anchor="middle" x="214.4937" y="-464.0401" font-family="Arial" font-size="14.00" fill="#000000">MSG files</text>
</g>
<!-- opp_msgc -->
<g id="node9" class="node">
<title>opp_msgc</title>
<polygon fill="none" stroke="#000000" points="247.9937,-413.7401 158.9937,-413.7401 158.9937,-377.7401 247.9937,-377.7401 247.9937,-413.7401"/>
<text text-anchor="middle" x="203.4937" y="-392.0401" font-family="Arial" font-size="14.00" fill="#000000">opp_msgc</text>
</g>
<!-- msg&#45;&gt;opp_msgc -->
<g id="edge1" class="edge">
<title>msg&#45;&gt;opp_msgc</title>
<path fill="none" stroke="#000000" d="M211.7179,-449.5715C210.5414,-441.8711 209.1425,-432.7145 207.8351,-424.1567"/>
<polygon fill="#000000" stroke="#000000" points="211.277,-423.5101 206.3068,-414.1534 204.3573,-424.5673 211.277,-423.5101"/>
</g>
<!-- ned -->
<g id="node4" class="node">
<title>ned</title>
<ellipse fill="none" stroke="#000000" cx="367.4937" cy="-162" rx="52.7911" ry="18"/>
<text text-anchor="middle" x="367.4937" y="-158.3" font-family="Arial" font-size="14.00" fill="#000000">NED files</text>
</g>
<!-- running -->
<g id="node11" class="node">
<title>running</title>
<polygon fill="none" stroke="#000000" points="404.4937,-108 330.4937,-108 330.4937,-72 404.4937,-72 404.4937,-108"/>
<text text-anchor="middle" x="367.4937" y="-86.3" font-family="Arial" font-size="14.00" fill="#000000">Running</text>
</g>
<!-- ned&#45;&gt;running -->
<g id="edge8" class="edge">
<title>ned&#45;&gt;running</title>
<path fill="none" stroke="#000000" d="M367.4937,-143.8314C367.4937,-136.131 367.4937,-126.9743 367.4937,-118.4166"/>
<polygon fill="#000000" stroke="#000000" points="370.9938,-118.4132 367.4937,-108.4133 363.9938,-118.4133 370.9938,-118.4132"/>
</g>
<!-- ini -->
<g id="node5" class="node">
<title>ini</title>
<ellipse fill="none" stroke="#000000" cx="504.4937" cy="-162" rx="66.0889" ry="18"/>
<text text-anchor="middle" x="504.4937" y="-158.3" font-family="Arial" font-size="14.00" fill="#000000">omnetpp.ini</text>
</g>
<!-- ini&#45;&gt;running -->
<g id="edge9" class="edge">
<title>ini&#45;&gt;running</title>
<path fill="none" stroke="#000000" d="M473.7482,-145.8418C455.2766,-136.1341 431.4785,-123.6271 411.0885,-112.9111"/>
<polygon fill="#000000" stroke="#000000" points="412.4715,-109.6841 401.9913,-108.1301 409.215,-115.8805 412.4715,-109.6841"/>
</g>
<!-- libs -->
<g id="node6" class="node">
<title>libs</title>
<ellipse fill="none" stroke="#000000" cx="411.4937" cy="-314.8701" rx="126.6443" ry="26.7407"/>
<text text-anchor="middle" x="411.4937" y="-318.6701" font-family="Arial" font-size="14.00" fill="#000000">Simulation kernel and</text>
<text text-anchor="middle" x="411.4937" y="-303.6701" font-family="Arial" font-size="14.00" fill="#000000">user interface libraries</text>
</g>
<!-- libs&#45;&gt;linking -->
<g id="edge5" class="edge">
<title>libs&#45;&gt;linking</title>
<path fill="none" stroke="#000000" d="M348.439,-291.4791C317.9158,-280.1561 281.509,-266.6505 251.6574,-255.5766"/>
<polygon fill="#000000" stroke="#000000" points="252.8045,-252.2691 242.2114,-252.0725 250.3698,-258.8321 252.8045,-252.2691"/>
</g>
<!-- prog -->
<g id="node7" class="node">
<title>prog</title>
<ellipse fill="none" stroke="#000000" cx="193.4937" cy="-162" rx="103.1819" ry="18"/>
<text text-anchor="middle" x="193.4937" y="-158.3" font-family="Arial" font-size="14.00" fill="#000000">Simulation program</text>
</g>
<!-- prog&#45;&gt;running -->
<g id="edge7" class="edge">
<title>prog&#45;&gt;running</title>
<path fill="none" stroke="#000000" d="M233.8501,-145.3008C259.8935,-134.5242 293.8542,-120.4715 321.0236,-109.229"/>
<polygon fill="#000000" stroke="#000000" points="322.4245,-112.4372 330.3264,-105.3796 319.748,-105.9691 322.4245,-112.4372"/>
</g>
<!-- result -->
<g id="node8" class="node">
<title>result</title>
<ellipse fill="none" stroke="#000000" cx="367.4937" cy="-18" rx="61.1893" ry="18"/>
<text text-anchor="middle" x="367.4937" y="-14.3" font-family="Arial" font-size="14.00" fill="#000000">Result files</text>
</g>
<!-- opp_msgc&#45;&gt;m_cc -->
<g id="edge2" class="edge">
<title>opp_msgc&#45;&gt;m_cc</title>
<path fill="none" stroke="#000000" d="M201.2245,-377.3894C199.9627,-367.1851 198.3662,-354.274 196.952,-342.8377"/>
<polygon fill="#000000" stroke="#000000" points="200.4202,-342.3644 195.7194,-332.8695 193.4731,-343.2235 200.4202,-342.3644"/>
</g>
<!-- linking&#45;&gt;prog -->
<g id="edge6" class="edge">
<title>linking&#45;&gt;prog</title>
<path fill="none" stroke="#000000" d="M193.4937,-215.8314C193.4937,-208.131 193.4937,-198.9743 193.4937,-190.4166"/>
<polygon fill="#000000" stroke="#000000" points="196.9938,-190.4132 193.4937,-180.4133 189.9938,-190.4133 196.9938,-190.4132"/>
</g>
<!-- running&#45;&gt;result -->
<g id="edge10" class="edge">
<title>running&#45;&gt;result</title>
<path fill="none" stroke="#000000" d="M367.4937,-71.8314C367.4937,-64.131 367.4937,-54.9743 367.4937,-46.4166"/>
<polygon fill="#000000" stroke="#000000" points="370.9938,-46.4132 367.4937,-36.4133 363.9938,-46.4133 370.9938,-46.4132"/>
</g>
</g>
</svg>
