<?xml version="1.0" encoding="UTF-8" standalone="no"?>
<!DOCTYPE svg PUBLIC "-//W3C//DTD SVG 1.1//EN"
 "http://www.w3.org/Graphics/SVG/1.1/DTD/svg11.dtd">
<!-- Generated by graphviz version 2.40.1 (20161225.0304)
 -->
<!-- Title: g Pages: 1 -->
<svg width="396pt" height="191pt"
 viewBox="0.00 0.00 396.00 190.60" xmlns="http://www.w3.org/2000/svg" xmlns:xlink="http://www.w3.org/1999/xlink">
<g id="graph0" class="graph" transform="scale(.6881 .6881) rotate(0) translate(4 273)">
<title>g</title>
<polygon fill="#ffffff" stroke="transparent" points="-4,4 -4,-273 571.5,-273 571.5,4 -4,4"/>
<!-- cObject -->
<g id="node1" class="node">
<title>cObject</title>
<polygon fill="none" stroke="#000000" points="191.5,-269 121.5,-269 121.5,-233 191.5,-233 191.5,-269"/>
<text text-anchor="middle" x="156.5" y="-247.3" font-family="Arial" font-size="14.00" fill="#000000">cObject</text>
</g>
<!-- cComponent -->
<g id="node2" class="node">
<title>cComponent</title>
<polygon fill="none" stroke="#000000" points="210,-182 103,-182 103,-146 210,-146 210,-182"/>
<text text-anchor="middle" x="156.5" y="-160.3" font-family="Arial" font-size="14.00" fill="#000000">cComponent</text>
</g>
<!-- cObject&#45;&gt;cComponent -->
<g id="edge1" class="edge">
<title>cObject&#45;&gt;cComponent</title>
<path fill="none" stroke="#000000" d="M156.5,-222.8156C156.5,-209.4102 156.5,-193.7801 156.5,-182.0034"/>
<polygon fill="#000000" stroke="#000000" points="153.0001,-222.9735 156.5,-232.9735 160.0001,-222.9736 153.0001,-222.9735"/>
<text text-anchor="middle" x="163.5" y="-203.8" font-family="Arial" font-size="14.00" fill="#000000">...</text>
</g>
<!-- cModule -->
<g id="node3" class="node">
<title>cModule</title>
<polygon fill="none" stroke="#000000" points="146.5,-109 70.5,-109 70.5,-73 146.5,-73 146.5,-109"/>
<text text-anchor="middle" x="108.5" y="-87.3" font-family="Arial" font-size="14.00" fill="#000000">cModule</text>
</g>
<!-- cComponent&#45;&gt;cModule -->
<g id="edge2" class="edge">
<title>cComponent&#45;&gt;cModule</title>
<path fill="none" stroke="#000000" d="M138.9624,-137.3282C132.7873,-127.9369 125.9955,-117.6077 120.395,-109.0904"/>
<polygon fill="#000000" stroke="#000000" points="136.2163,-139.5224 144.6348,-145.9551 142.0652,-135.6765 136.2163,-139.5224"/>
</g>
<!-- cChannel -->
<g id="node4" class="node">
<title>cChannel</title>
<polygon fill="none" stroke="#000000" points="338,-109 255,-109 255,-73 338,-73 338,-109"/>
<text text-anchor="middle" x="296.5" y="-87.3" font-family="Arial" font-size="14.00" fill="#000000">cChannel</text>
</g>
<!-- cComponent&#45;&gt;cChannel -->
<g id="edge3" class="edge">
<title>cComponent&#45;&gt;cChannel</title>
<path fill="none" stroke="#000000" d="M199.9812,-141.3276C219.8715,-130.9563 243.1139,-118.837 261.8062,-109.0904"/>
<polygon fill="#000000" stroke="#000000" points="198.3555,-138.2281 191.1068,-145.9551 201.592,-144.4349 198.3555,-138.2281"/>
</g>
<!-- cSimpleModule -->
<g id="node5" class="node">
<title>cSimpleModule</title>
<polygon fill="none" stroke="#000000" points="125,-36 0,-36 0,0 125,0 125,-36"/>
<text text-anchor="middle" x="62.5" y="-14.3" font-family="Arial" font-size="14.00" fill="#000000">cSimpleModule</text>
</g>
<!-- cModule&#45;&gt;cSimpleModule -->
<g id="edge4" class="edge">
<title>cModule&#45;&gt;cSimpleModule</title>
<path fill="none" stroke="#000000" d="M91.6931,-64.3282C85.7753,-54.9369 79.2665,-44.6077 73.8994,-36.0904"/>
<polygon fill="#000000" stroke="#000000" points="88.8368,-66.3606 97.1292,-72.9551 94.7591,-62.6287 88.8368,-66.3606"/>
</g>
<!-- cIdealChannel -->
<g id="node6" class="node">
<title>cIdealChannel</title>
<polygon fill="none" stroke="#000000" points="261.5,-36 143.5,-36 143.5,0 261.5,0 261.5,-36"/>
<text text-anchor="middle" x="202.5" y="-14.3" font-family="Arial" font-size="14.00" fill="#000000">cIdealChannel</text>
</g>
<!-- cChannel&#45;&gt;cIdealChannel -->
<g id="edge5" class="edge">
<title>cChannel&#45;&gt;cIdealChannel</title>
<path fill="none" stroke="#000000" d="M265.1209,-66.6311C252.2724,-56.653 237.6666,-45.3102 225.7944,-36.0904"/>
<polygon fill="#000000" stroke="#000000" points="263.2192,-69.5857 273.264,-72.9551 267.5127,-64.0571 263.2192,-69.5857"/>
</g>
<!-- cDelayChannel -->
<g id="node7" class="node">
<title>cDelayChannel</title>
<polygon fill="none" stroke="#000000" points="403.5,-36 279.5,-36 279.5,0 403.5,0 403.5,-36"/>
<text text-anchor="middle" x="341.5" y="-14.3" font-family="Arial" font-size="14.00" fill="#000000">cDelayChannel</text>
</g>
<!-- cChannel&#45;&gt;cDelayChannel -->
<g id="edge6" class="edge">
<title>cChannel&#45;&gt;cDelayChannel</title>
<path fill="none" stroke="#000000" d="M312.9415,-64.3282C318.7307,-54.9369 325.098,-44.6077 330.3484,-36.0904"/>
<polygon fill="#000000" stroke="#000000" points="309.8917,-62.6058 307.6236,-72.9551 315.8505,-66.2791 309.8917,-62.6058"/>
</g>
<!-- cDatarateChannel -->
<g id="node8" class="node">
<title>cDatarateChannel</title>
<polygon fill="none" stroke="#000000" points="567.5,-36 421.5,-36 421.5,0 567.5,0 567.5,-36"/>
<text text-anchor="middle" x="494.5" y="-14.3" font-family="Arial" font-size="14.00" fill="#000000">cDatarateChannel</text>
</g>
<!-- cChannel&#45;&gt;cDatarateChannel -->
<g id="edge7" class="edge">
<title>cChannel&#45;&gt;cDatarateChannel</title>
<path fill="none" stroke="#000000" d="M347.492,-72.1999C377.614,-61.0943 415.5595,-47.1043 445.3535,-36.1197"/>
<polygon fill="#000000" stroke="#000000" points="346.1792,-68.9536 338.0073,-75.6968 348.6007,-75.5214 346.1792,-68.9536"/>
</g>
</g>
</svg>
