<?xml version="1.0" encoding="UTF-8" standalone="no"?>
<!DOCTYPE svg PUBLIC "-//W3C//DTD SVG 1.1//EN"
 "http://www.w3.org/Graphics/SVG/1.1/DTD/svg11.dtd">
<!-- Generated by graphviz version 2.40.1 (20161225.0304)
 -->
<!-- Title: g Pages: 1 -->
<svg width="188pt" height="260pt"
 viewBox="0.00 0.00 187.59 260.00" xmlns="http://www.w3.org/2000/svg" xmlns:xlink="http://www.w3.org/1999/xlink">
<g id="graph0" class="graph" transform="scale(1 1) rotate(0) translate(4 256)">
<title>g</title>
<polygon fill="#ffffff" stroke="transparent" points="-4,4 -4,-256 183.5928,-256 183.5928,4 -4,4"/>
<!-- node1 -->
<g id="node1" class="node">
<title>node1</title>
<ellipse fill="none" stroke="#000000" cx="89.2964" cy="-234" rx="40.0939" ry="18"/>
<text text-anchor="middle" x="89.2964" y="-230.3" font-family="Arial" font-size="14.00" fill="#000000">node1</text>
</g>
<!-- node2 -->
<g id="node2" class="node">
<title>node2</title>
<ellipse fill="none" stroke="#000000" cx="40.2964" cy="-162" rx="40.0939" ry="18"/>
<text text-anchor="middle" x="40.2964" y="-158.3" font-family="Arial" font-size="14.00" fill="#000000">node2</text>
</g>
<!-- node1&#45;&#45;node2 -->
<g id="edge1" class="edge">
<title>node1&#45;&#45;node2</title>
<path fill="none" stroke="#000000" d="M77.4349,-216.5708C69.7309,-205.2506 59.7309,-190.5568 52.0487,-179.2687"/>
</g>
<!-- node3 -->
<g id="node5" class="node">
<title>node3</title>
<ellipse fill="none" stroke="#000000" cx="139.2964" cy="-162" rx="40.0939" ry="18"/>
<text text-anchor="middle" x="139.2964" y="-158.3" font-family="Arial" font-size="14.00" fill="#000000">node3</text>
</g>
<!-- node1&#45;&#45;node3 -->
<g id="edge4" class="edge">
<title>node1&#45;&#45;node3</title>
<path fill="none" stroke="#000000" d="M101.4,-216.5708C109.2613,-205.2506 119.4653,-190.5568 127.3043,-179.2687"/>
</g>
<!-- node4 -->
<g id="node3" class="node">
<title>node4</title>
<ellipse fill="none" stroke="#000000" cx="40.2964" cy="-90" rx="40.0939" ry="18"/>
<text text-anchor="middle" x="40.2964" y="-86.3" font-family="Arial" font-size="14.00" fill="#000000">node4</text>
</g>
<!-- node2&#45;&#45;node4 -->
<g id="edge2" class="edge">
<title>node2&#45;&#45;node4</title>
<path fill="none" stroke="#000000" d="M40.2964,-143.8314C40.2964,-133 40.2964,-119.2876 40.2964,-108.4133"/>
</g>
<!-- node5 -->
<g id="node6" class="node">
<title>node5</title>
<ellipse fill="none" stroke="#000000" cx="139.2964" cy="-90" rx="40.0939" ry="18"/>
<text text-anchor="middle" x="139.2964" y="-86.3" font-family="Arial" font-size="14.00" fill="#000000">node5</text>
</g>
<!-- node2&#45;&#45;node5 -->
<g id="edge7" class="edge">
<title>node2&#45;&#45;node5</title>
<path fill="none" stroke="#000000" d="M61.778,-146.3771C78.4973,-134.2175 101.5755,-117.4334 118.1969,-105.3451"/>
</g>
<!-- node6 -->
<g id="node4" class="node">
<title>node6</title>
<ellipse fill="none" stroke="#000000" cx="89.2964" cy="-18" rx="40.0939" ry="18"/>
<text text-anchor="middle" x="89.2964" y="-14.3" font-family="Arial" font-size="14.00" fill="#000000">node6</text>
</g>
<!-- node4&#45;&#45;node6 -->
<g id="edge3" class="edge">
<title>node4&#45;&#45;node6</title>
<path fill="none" stroke="#000000" d="M52.158,-72.5708C59.862,-61.2506 69.8619,-46.5568 77.5441,-35.2687"/>
</g>
<!-- node3&#45;&#45;node4 -->
<g id="edge8" class="edge">
<title>node3&#45;&#45;node4</title>
<path fill="none" stroke="#000000" d="M117.8149,-146.3771C101.0955,-134.2175 78.0174,-117.4334 61.3959,-105.3451"/>
</g>
<!-- node3&#45;&#45;node5 -->
<g id="edge5" class="edge">
<title>node3&#45;&#45;node5</title>
<path fill="none" stroke="#000000" d="M139.2964,-143.8314C139.2964,-133 139.2964,-119.2876 139.2964,-108.4133"/>
</g>
<!-- node5&#45;&#45;node6 -->
<g id="edge6" class="edge">
<title>node5&#45;&#45;node6</title>
<path fill="none" stroke="#000000" d="M127.1928,-72.5708C119.3316,-61.2506 109.1275,-46.5568 101.2886,-35.2687"/>
</g>
</g>
</svg>
