<?xml version="1.0" encoding="UTF-8" standalone="no"?>
<!DOCTYPE svg PUBLIC "-//W3C//DTD SVG 1.1//EN"
 "http://www.w3.org/Graphics/SVG/1.1/DTD/svg11.dtd">
<!-- Generated by graphviz version 2.40.1 (20161225.0304)
 -->
<!-- Title: g Pages: 1 -->
<svg width="562pt" height="296pt"
 viewBox="0.00 0.00 562.00 295.75" xmlns="http://www.w3.org/2000/svg" xmlns:xlink="http://www.w3.org/1999/xlink">
<g id="graph0" class="graph" transform="scale(.6943 .6943) rotate(0) translate(4 422)">
<title>g</title>
<polygon fill="#ffffff" stroke="transparent" points="-4,4 -4,-422 805.5,-422 805.5,4 -4,4"/>
<!-- cIListener -->
<g id="node1" class="node">
<title>cIListener</title>
<polygon fill="none" stroke="#000000" points="450.5,-418 364.5,-418 364.5,-382 450.5,-382 450.5,-418"/>
<text text-anchor="middle" x="407.5" y="-396.3" font-family="Arial" font-size="14.00" fill="#000000">cIListener</text>
</g>
<!-- cResultListener -->
<g id="node2" class="node">
<title>cResultListener</title>
<polygon fill="none" stroke="#000000" points="470,-346 345,-346 345,-310 470,-310 470,-346"/>
<text text-anchor="middle" x="407.5" y="-324.3" font-family="Arial" font-size="14.00" fill="#000000">cResultListener</text>
</g>
<!-- cIListener&#45;&gt;cResultListener -->
<g id="edge1" class="edge">
<title>cIListener&#45;&gt;cResultListener</title>
<path fill="none" stroke="#000000" d="M407.5,-371.5726C407.5,-363.1084 407.5,-354.0593 407.5,-346.4133"/>
<polygon fill="#000000" stroke="#000000" points="404.0001,-371.8313 407.5,-381.8314 411.0001,-371.8314 404.0001,-371.8313"/>
</g>
<!-- cResultFilter -->
<g id="node3" class="node">
<title>cResultFilter</title>
<polygon fill="none" stroke="#000000" points="378,-274 275,-274 275,-238 378,-238 378,-274"/>
<text text-anchor="middle" x="326.5" y="-252.3" font-family="Arial" font-size="14.00" fill="#000000">cResultFilter</text>
</g>
<!-- cResultListener&#45;&gt;cResultFilter -->
<g id="edge2" class="edge">
<title>cResultListener&#45;&gt;cResultFilter</title>
<path fill="none" stroke="#000000" d="M379.538,-303.1448C368.8247,-293.622 356.813,-282.9449 346.9332,-274.1628"/>
<polygon fill="#000000" stroke="#000000" points="377.2609,-305.8036 387.0603,-309.8314 381.9114,-300.5717 377.2609,-305.8036"/>
</g>
<!-- cResultRecorder -->
<g id="node4" class="node">
<title>cResultRecorder</title>
<polygon fill="none" stroke="#000000" points="625.5,-274 493.5,-274 493.5,-238 625.5,-238 625.5,-274"/>
<text text-anchor="middle" x="559.5" y="-252.3" font-family="Arial" font-size="14.00" fill="#000000">cResultRecorder</text>
</g>
<!-- cResultListener&#45;&gt;cResultRecorder -->
<g id="edge3" class="edge">
<title>cResultListener&#45;&gt;cResultRecorder</title>
<path fill="none" stroke="#000000" d="M455.0843,-305.4601C476.4495,-295.3397 501.3147,-283.5615 521.4198,-274.038"/>
<polygon fill="#000000" stroke="#000000" points="453.3951,-302.3874 445.856,-309.8314 456.3917,-308.7135 453.3951,-302.3874"/>
</g>
<!-- cNumericResultFilter -->
<g id="node5" class="node">
<title>cNumericResultFilter</title>
<polygon fill="none" stroke="#000000" points="163,-201 0,-201 0,-165 163,-165 163,-201"/>
<text text-anchor="middle" x="81.5" y="-179.3" font-family="Arial" font-size="14.00" fill="#000000">cNumericResultFilter</text>
</g>
<!-- cResultFilter&#45;&gt;cNumericResultFilter -->
<g id="edge4" class="edge">
<title>cResultFilter&#45;&gt;cNumericResultFilter</title>
<path fill="none" stroke="#000000" d="M265.0295,-237.6843C227.4558,-226.4889 179.5933,-212.2278 142.1675,-201.0764"/>
<polygon fill="#000000" stroke="#000000" points="264.2581,-241.1064 274.8412,-240.6078 266.257,-234.3979 264.2581,-241.1064"/>
</g>
<!-- cObjectResultFilter -->
<g id="node6" class="node">
<title>cObjectResultFilter</title>
<polygon fill="none" stroke="#000000" points="330,-201 181,-201 181,-165 330,-165 330,-201"/>
<text text-anchor="middle" x="255.5" y="-179.3" font-family="Arial" font-size="14.00" fill="#000000">cObjectResultFilter</text>
</g>
<!-- cResultFilter&#45;&gt;cObjectResultFilter -->
<g id="edge5" class="edge">
<title>cResultFilter&#45;&gt;cObjectResultFilter</title>
<path fill="none" stroke="#000000" d="M301.9638,-230.7726C292.4653,-221.0066 281.8058,-210.0468 273.0947,-201.0904"/>
<polygon fill="#000000" stroke="#000000" points="299.4682,-233.2267 308.9494,-237.9551 304.4862,-228.3462 299.4682,-233.2267"/>
</g>
<!-- CountFilter,\n... -->
<g id="node8" class="node">
<title>CountFilter,\n...</title>
<polygon fill="none" stroke="#000000" points="445.5,-202 347.5,-202 347.5,-164 445.5,-164 445.5,-202"/>
<text text-anchor="middle" x="396.5" y="-186.8" font-family="Arial" font-size="14.00" fill="#000000">CountFilter,</text>
<text text-anchor="middle" x="396.5" y="-171.8" font-family="Arial" font-size="14.00" fill="#000000">...</text>
</g>
<!-- cResultFilter&#45;&gt;CountFilter,\n... -->
<g id="edge7" class="edge">
<title>cResultFilter&#45;&gt;CountFilter,\n...</title>
<path fill="none" stroke="#000000" d="M350.7424,-230.7186C359.7404,-221.335 369.7892,-210.8556 378.1726,-202.1128"/>
<polygon fill="#000000" stroke="#000000" points="348.1984,-228.3148 343.8034,-237.9551 353.2509,-233.1596 348.1984,-228.3148"/>
</g>
<!-- cNumericResultRecorder -->
<g id="node7" class="node">
<title>cNumericResultRecorder</title>
<polygon fill="none" stroke="#000000" points="655.5,-201 463.5,-201 463.5,-165 655.5,-165 655.5,-201"/>
<text text-anchor="middle" x="559.5" y="-179.3" font-family="Arial" font-size="14.00" fill="#000000">cNumericResultRecorder</text>
</g>
<!-- cResultRecorder&#45;&gt;cNumericResultRecorder -->
<g id="edge6" class="edge">
<title>cResultRecorder&#45;&gt;cNumericResultRecorder</title>
<path fill="none" stroke="#000000" d="M559.5,-227.8688C559.5,-218.8769 559.5,-209.1687 559.5,-201.0904"/>
<polygon fill="#000000" stroke="#000000" points="556.0001,-227.955 559.5,-237.9551 563.0001,-227.9551 556.0001,-227.955"/>
</g>
<!-- CountRecorder,\n... -->
<g id="node11" class="node">
<title>CountRecorder,\n...</title>
<polygon fill="none" stroke="#000000" points="801.5,-202 673.5,-202 673.5,-164 801.5,-164 801.5,-202"/>
<text text-anchor="middle" x="737.5" y="-186.8" font-family="Arial" font-size="14.00" fill="#000000">CountRecorder,</text>
<text text-anchor="middle" x="737.5" y="-171.8" font-family="Arial" font-size="14.00" fill="#000000">...</text>
</g>
<!-- cResultRecorder&#45;&gt;CountRecorder,\n... -->
<g id="edge10" class="edge">
<title>cResultRecorder&#45;&gt;CountRecorder,\n...</title>
<path fill="none" stroke="#000000" d="M612.7856,-234.1469C637.636,-223.9555 666.9398,-211.9376 690.8961,-202.1128"/>
<polygon fill="#000000" stroke="#000000" points="611.4241,-230.9223 603.5,-237.9551 614.0802,-237.3988 611.4241,-230.9223"/>
</g>
<!-- SumFilter,\nMinFilter,\nMaxFilter,\nTimeAverageFilter,\n... -->
<g id="node9" class="node">
<title>SumFilter,\nMinFilter,\nMaxFilter,\nTimeAverageFilter,\n...</title>
<polygon fill="none" stroke="#000000" points="157,-105.5 6,-105.5 6,-22.5 157,-22.5 157,-105.5"/>
<text text-anchor="middle" x="81.5" y="-90.3" font-family="Arial" font-size="14.00" fill="#000000">SumFilter,</text>
<text text-anchor="middle" x="81.5" y="-75.3" font-family="Arial" font-size="14.00" fill="#000000">MinFilter,</text>
<text text-anchor="middle" x="81.5" y="-60.3" font-family="Arial" font-size="14.00" fill="#000000">MaxFilter,</text>
<text text-anchor="middle" x="81.5" y="-45.3" font-family="Arial" font-size="14.00" fill="#000000">TimeAverageFilter,</text>
<text text-anchor="middle" x="81.5" y="-30.3" font-family="Arial" font-size="14.00" fill="#000000">...</text>
</g>
<!-- cNumericResultFilter&#45;&gt;SumFilter,\nMinFilter,\nMaxFilter,\nTimeAverageFilter,\n... -->
<g id="edge8" class="edge">
<title>cNumericResultFilter&#45;&gt;SumFilter,\nMinFilter,\nMaxFilter,\nTimeAverageFilter,\n...</title>
<path fill="none" stroke="#000000" d="M81.5,-154.525C81.5,-139.9243 81.5,-121.8632 81.5,-105.7236"/>
<polygon fill="#000000" stroke="#000000" points="78.0001,-154.9264 81.5,-164.9265 85.0001,-154.9265 78.0001,-154.9264"/>
</g>
<!-- PacketBitsFilter,\nPacketBytesFilter,\n... -->
<g id="node10" class="node">
<title>PacketBitsFilter,\nPacketBytesFilter,\n...</title>
<polygon fill="none" stroke="#000000" points="326.5,-90.5 184.5,-90.5 184.5,-37.5 326.5,-37.5 326.5,-90.5"/>
<text text-anchor="middle" x="255.5" y="-75.3" font-family="Arial" font-size="14.00" fill="#000000">PacketBitsFilter,</text>
<text text-anchor="middle" x="255.5" y="-60.3" font-family="Arial" font-size="14.00" fill="#000000">PacketBytesFilter,</text>
<text text-anchor="middle" x="255.5" y="-45.3" font-family="Arial" font-size="14.00" fill="#000000">...</text>
</g>
<!-- cObjectResultFilter&#45;&gt;PacketBitsFilter,\nPacketBytesFilter,\n... -->
<g id="edge9" class="edge">
<title>cObjectResultFilter&#45;&gt;PacketBitsFilter,\nPacketBytesFilter,\n...</title>
<path fill="none" stroke="#000000" d="M255.5,-154.8558C255.5,-135.4254 255.5,-109.7493 255.5,-90.6503"/>
<polygon fill="#000000" stroke="#000000" points="252.0001,-154.9264 255.5,-164.9265 259.0001,-154.9265 252.0001,-154.9264"/>
</g>
<!-- VectorRecorder,\nLastValueRecorder,\nHistogramRecorder,\nSumRecorder,\nMinRecorder,\nMaxRecorder,\nTimeAverageRecorder,\n... -->
<g id="node12" class="node">
<title>VectorRecorder,\nLastValueRecorder,\nHistogramRecorder,\nSumRecorder,\nMinRecorder,\nMaxRecorder,\nTimeAverageRecorder,\n...</title>
<polygon fill="none" stroke="#000000" points="649.5,-128 469.5,-128 469.5,0 649.5,0 649.5,-128"/>
<text text-anchor="middle" x="559.5" y="-112.8" font-family="Arial" font-size="14.00" fill="#000000">VectorRecorder,</text>
<text text-anchor="middle" x="559.5" y="-97.8" font-family="Arial" font-size="14.00" fill="#000000">LastValueRecorder,</text>
<text text-anchor="middle" x="559.5" y="-82.8" font-family="Arial" font-size="14.00" fill="#000000">HistogramRecorder,</text>
<text text-anchor="middle" x="559.5" y="-67.8" font-family="Arial" font-size="14.00" fill="#000000">SumRecorder,</text>
<text text-anchor="middle" x="559.5" y="-52.8" font-family="Arial" font-size="14.00" fill="#000000">MinRecorder,</text>
<text text-anchor="middle" x="559.5" y="-37.8" font-family="Arial" font-size="14.00" fill="#000000">MaxRecorder,</text>
<text text-anchor="middle" x="559.5" y="-22.8" font-family="Arial" font-size="14.00" fill="#000000">TimeAverageRecorder,</text>
<text text-anchor="middle" x="559.5" y="-7.8" font-family="Arial" font-size="14.00" fill="#000000">...</text>
</g>
<!-- cNumericResultRecorder&#45;&gt;VectorRecorder,\nLastValueRecorder,\nHistogramRecorder,\nSumRecorder,\nMinRecorder,\nMaxRecorder,\nTimeAverageRecorder,\n... -->
<g id="edge11" class="edge">
<title>cNumericResultRecorder&#45;&gt;VectorRecorder,\nLastValueRecorder,\nHistogramRecorder,\nSumRecorder,\nMinRecorder,\nMaxRecorder,\nTimeAverageRecorder,\n...</title>
<path fill="none" stroke="#000000" d="M559.5,-154.9179C559.5,-146.7595 559.5,-137.496 559.5,-128.0786"/>
<polygon fill="#000000" stroke="#000000" points="556.0001,-154.9264 559.5,-164.9265 563.0001,-154.9265 556.0001,-154.9264"/>
</g>
</g>
</svg>
